<svg xmlns="http://www.w3.org/2000/svg" viewBox="0 0 24 24" fill="none" stroke="currentColor" stroke-width="2" stroke-linecap="round" stroke-linejoin="round">
  <path d="M21 15a2 2 0 0 1-2 2H5a2 2 0 0 1-2-2V9a2 2 0 0 1 2-2h14a2 2 0 0 1 2 2v6z"></path>
  <path d="M7 19h10"></path>
  <path d="M7 4h10"></path>
  <path d="M3 9v6"></path>
  <path d="M21 9v6"></path>
  <path d="M7 10v4"></path>
  <path d="M11 10v4"></path>
  <path d="M7 10l4 4"></path>
  <path d="M11 10l-4 4"></path>
  <path d="M14 10h3"></path>
  <path d="M14 14h3"></path>
</svg> 